# xmcd
#
# Track frame offsets:
#	150
#	22725
#	33397
#	52617
#	57620
#	71557
#	92017
#	110270
#	116827
#	135347
#	152485
#	157100
#	174260
#	194790
#
# Disc length: 2693 seconds
#
# Revision: 1
# Processed by: cddbd v1.5.1PL0 Copyright (c) Steve Scherf et al.
# Submitted via: CDex 1.50Beta5
#
DISCID=b20a830e
DTITLE=屑 - 可燃物
DYEAR=2001
DGENRE=
TTITLE0=海
TTITLE1=家のない子に
TTITLE2=無実のためのレインボー
TTITLE3=ネシネシデンカポンチ
TTITLE4=どてかぼちゃ
TTITLE5=雨、夢、運命
TTITLE6=花火の町
TTITLE7=屑のテーマ
TTITLE8=ルックの商店街
TTITLE9=シャイニング
TTITLE10=君を守りたい
TTITLE11=ベッドルーム・ロック
TTITLE12=しあわせになれ
TTITLE13=労働混成曲(ボーナストラック)
EXTD=
EXTT0=
EXTT1=
EXTT2=
EXTT3=
EXTT4=
EXTT5=
EXTT6=
EXTT7=
EXTT8=
EXTT9=
EXTT10=
EXTT11=
EXTT12=
EXTT13=
PLAYORDER=
